<svg width="105" height="56" viewBox="0 0 105 56" fill="none" xmlns="http://www.w3.org/2000/svg">
<rect x="0.5" y="0.5" width="104" height="55" rx="7.5" fill="white" stroke="#E8ECF4"/>
<g clip-path="url(#clip0_1_33)">
<path d="M44.6683 40.5133C44.1557 40.1722 43.7014 39.7508 43.3228 39.2653C42.9064 38.7641 42.5206 38.2383 42.1675 37.6906C41.3388 36.4766 40.6889 35.1498 40.2378 33.7508C39.6958 32.1258 39.4334 30.5683 39.4334 29.0448C39.4334 27.3435 39.8015 25.8582 40.5213 24.6102C41.055 23.6348 41.8396 22.8196 42.7939 22.2491C43.7188 21.6746 44.7815 21.3602 45.87 21.3391C46.2511 21.3391 46.6614 21.3943 47.0969 21.5C47.4097 21.5885 47.7908 21.7283 48.2563 21.9021C48.8487 22.1305 49.1745 22.2702 49.285 22.3043C49.6319 22.4311 49.9236 22.4863 50.1527 22.4863C50.3266 22.4863 50.572 22.4311 50.8507 22.3466C51.0075 22.2913 51.3032 22.1938 51.7265 22.0126C52.1458 21.8599 52.4757 21.7291 52.7381 21.6316C53.1403 21.513 53.5295 21.4033 53.8764 21.348C54.2877 21.2832 54.7051 21.266 55.1203 21.2968C55.8399 21.3439 56.5487 21.4963 57.2239 21.7494C58.3281 22.1938 59.221 22.8877 59.8857 23.8741C59.6047 24.0472 59.3411 24.2469 59.0983 24.4705C58.5699 24.9389 58.1198 25.4889 57.765 26.0995C57.3013 26.934 57.0609 27.8741 57.0671 28.8287C57.0842 30.0011 57.3848 31.0338 57.9771 31.9268C58.4126 32.5886 58.9785 33.1545 59.6403 33.59C59.9791 33.8183 60.2708 33.9751 60.5503 34.0807C60.4195 34.487 60.2797 34.8802 60.1148 35.2702C59.7407 36.1448 59.2873 36.9833 58.7603 37.7751C58.2907 38.4568 57.9227 38.9646 57.6432 39.3026C57.2077 39.8186 56.7884 40.2126 56.3651 40.4873C55.8995 40.796 55.3495 40.961 54.7905 40.961C54.4119 40.9755 54.0334 40.9297 53.6692 40.8253C53.3564 40.7196 53.0468 40.6051 52.7422 40.4743C52.4254 40.3288 52.0988 40.2058 51.7647 40.1062C50.939 39.8941 50.0732 39.8927 49.2468 40.1021C48.908 40.1996 48.5822 40.3134 48.2604 40.4531C47.8078 40.6433 47.5072 40.7708 47.3333 40.8253C46.9864 40.9268 46.6265 40.9902 46.2625 41.0113C45.6994 41.0113 45.1745 40.8505 44.6545 40.5246L44.6683 40.5133ZM52.0946 20.5136C51.3585 20.8816 50.6557 21.0385 49.9577 20.9873C49.848 20.2845 49.9577 19.5654 50.2494 18.7781C50.4977 18.1111 50.8647 17.4945 51.3325 16.9581C51.8265 16.3934 52.4259 15.9306 53.0972 15.5955C53.8122 15.2275 54.4939 15.0284 55.1455 14.9991C55.23 15.7353 55.1455 16.4592 54.875 17.2416C54.6246 17.9333 54.2583 18.5773 53.7919 19.1461C53.3158 19.7116 52.7316 20.1762 52.0735 20.5128L52.0946 20.5136Z" fill="black"/>
</g>
<defs>
<clipPath id="clip0_1_33">
<rect width="26" height="26" fill="white" transform="translate(37 15)"/>
</clipPath>
</defs>
</svg>
