<svg width="20" height="20" viewBox="0 0 20 20" fill="none" xmlns="http://www.w3.org/2000/svg">
<path d="M8.21425 4.28573H11.7857C11.7857 3.81213 11.5975 3.35793 11.2627 3.02304C10.9278 2.68815 10.4736 2.50002 9.99997 2.50002C9.52636 2.50002 9.07216 2.68815 8.73727 3.02304C8.40239 3.35793 8.21425 3.81213 8.21425 4.28573ZM7.14282 4.28573C7.14282 3.52797 7.44384 2.80124 7.97966 2.26543C8.51548 1.72961 9.2422 1.42859 9.99997 1.42859C10.7577 1.42859 11.4845 1.72961 12.0203 2.26543C12.5561 2.80124 12.8571 3.52797 12.8571 4.28573H17.3214C17.4635 4.28573 17.5997 4.34217 17.7002 4.44264C17.8007 4.5431 17.8571 4.67937 17.8571 4.82145C17.8571 4.96353 17.8007 5.09979 17.7002 5.20025C17.5997 5.30072 17.4635 5.35716 17.3214 5.35716H16.3857L15.5164 15.7879C15.4531 16.5467 15.1071 17.254 14.5467 17.7696C13.9864 18.2852 13.2528 18.5714 12.4914 18.5714H7.50854C6.7471 18.5714 6.01349 18.2852 5.45318 17.7696C4.89287 17.254 4.54678 16.5467 4.48354 15.7879L3.61425 5.35716H2.67854C2.53646 5.35716 2.4002 5.30072 2.29973 5.20025C2.19926 5.09979 2.14282 4.96353 2.14282 4.82145C2.14282 4.67937 2.19926 4.5431 2.29973 4.44264C2.4002 4.34217 2.53646 4.28573 2.67854 4.28573H7.14282ZM8.92854 8.39287C8.92854 8.25079 8.8721 8.11453 8.77163 8.01407C8.67116 7.9136 8.5349 7.85716 8.39282 7.85716C8.25074 7.85716 8.11448 7.9136 8.01402 8.01407C7.91355 8.11453 7.85711 8.25079 7.85711 8.39287V14.4643C7.85711 14.6064 7.91355 14.7426 8.01402 14.8431C8.11448 14.9436 8.25074 15 8.39282 15C8.5349 15 8.67116 14.9436 8.77163 14.8431C8.8721 14.7426 8.92854 14.6064 8.92854 14.4643V8.39287ZM11.6071 7.85716C11.465 7.85716 11.3288 7.9136 11.2283 8.01407C11.1278 8.11453 11.0714 8.25079 11.0714 8.39287V14.4643C11.0714 14.6064 11.1278 14.7426 11.2283 14.8431C11.3288 14.9436 11.465 15 11.6071 15C11.7492 15 11.8855 14.9436 11.9859 14.8431C12.0864 14.7426 12.1428 14.6064 12.1428 14.4643V8.39287C12.1428 8.25079 12.0864 8.11453 11.9859 8.01407C11.8855 7.9136 11.7492 7.85716 11.6071 7.85716Z" fill="#DB0000"/>
</svg>
