<svg width="20" height="20" viewBox="0 0 20 20" fill="none" xmlns="http://www.w3.org/2000/svg">
<path d="M11.5 8H16V7.414C16.0001 7.27535 15.9809 7.13737 15.943 7.004L15.942 7C15.8717 6.75588 15.7407 6.5336 15.561 6.354L11.646 2.439C11.3648 2.15798 10.9835 2.00008 10.586 2H6C5.46957 2 4.96086 2.21071 4.58579 2.58579C4.21071 2.96086 4 3.46957 4 4V16C4 16.5304 4.21071 17.0391 4.58579 17.4142C4.96086 17.7893 5.46957 18 6 18H8.221L8.208 17.974C8.05226 17.6741 7.98138 17.3373 8.003 17H6C5.73478 17 5.48043 16.8946 5.29289 16.7071C5.10536 16.5196 5 16.2652 5 16V4C5 3.73478 5.10536 3.48043 5.29289 3.29289C5.48043 3.10536 5.73478 3 6 3H10V6.5C10 6.89782 10.158 7.27936 10.4393 7.56066C10.7206 7.84196 11.1022 8 11.5 8ZM11.5 7C11.3674 7 11.2402 6.94732 11.1464 6.85355C11.0527 6.75979 11 6.63261 11 6.5V3.207L14.793 7H11.5ZM14.81 9.548C14.9832 9.37218 15.1895 9.23238 15.4169 9.13665C15.6444 9.04093 15.8886 8.99118 16.1354 8.99027C16.3821 8.98936 16.6267 9.03731 16.8548 9.13136C17.083 9.2254 17.2903 9.36368 17.4648 9.53822C17.6393 9.71276 17.7775 9.92011 17.8714 10.1483C17.9654 10.3765 18.0132 10.6211 18.0122 10.8679C18.0112 11.1146 17.9614 11.3588 17.8656 11.5862C17.7698 11.8137 17.6299 12.0199 17.454 12.193L12.624 17.022C12.3426 17.3035 11.9901 17.5033 11.604 17.6L10.106 17.974C9.95705 18.0111 9.80103 18.0091 9.6531 17.9681C9.50516 17.9271 9.37035 17.8485 9.26175 17.74C9.15316 17.6315 9.07447 17.4968 9.03333 17.3489C8.9922 17.201 8.99002 17.045 9.027 16.896L9.402 15.398C9.49791 15.0116 9.69781 14.6588 9.98 14.378L14.81 9.548Z" fill="#1E232C"/>
</svg>
