<svg width="44" height="44" viewBox="0 0 44 44" fill="none" xmlns="http://www.w3.org/2000/svg">
<circle cx="22" cy="22" r="22" fill="#461F70"/>
<path d="M26.3333 33.6458H17.6667C11.4375 33.6458 11.4375 30.3417 11.4375 27.4167V26.3333C11.4375 23.9175 11.4375 21.1875 16.5833 21.1875C17.8725 21.1875 18.3492 21.5017 19.0208 22C19.0533 22.0325 19.0967 22.0542 19.1292 22.0975L20.2342 23.2675C21.1658 24.2533 22.8558 24.2533 23.7875 23.2675L24.8925 22.0975C24.925 22.065 24.9575 22.0325 25.0008 22C25.6725 21.4908 26.1492 21.1875 27.4383 21.1875C32.5842 21.1875 32.5842 23.9175 32.5842 26.3333V27.4167C32.5625 31.555 30.4717 33.6458 26.3333 33.6458ZM16.5833 22.8125C13.0625 22.8125 13.0625 23.9175 13.0625 26.3333V27.4167C13.0625 30.385 13.0625 32.0208 17.6667 32.0208H26.3333C29.5617 32.0208 30.9375 30.645 30.9375 27.4167V26.3333C30.9375 23.9175 30.9375 22.8125 27.4167 22.8125C26.6367 22.8125 26.4742 22.91 26.0083 23.2567L24.9575 24.3725C24.1775 25.1958 23.1267 25.6508 22 25.6508C20.8733 25.6508 19.8225 25.1958 19.0425 24.3725L17.9917 23.2567C17.5258 22.91 17.3633 22.8125 16.5833 22.8125Z" fill="white"/>
<path d="M29.5832 22.8123C29.139 22.8123 28.7707 22.444 28.7707 21.9998V15.4998C28.7707 13.084 28.7707 11.979 25.2498 11.979H18.7498C15.229 11.979 15.229 13.084 15.229 15.4998V21.9998C15.229 22.444 14.8607 22.8123 14.4165 22.8123C13.9723 22.8123 13.604 22.444 13.604 21.9998V15.4998C13.604 13.084 13.604 10.354 18.7498 10.354H25.2498C30.3957 10.354 30.3957 13.084 30.3957 15.4998V21.9998C30.3957 22.444 30.0273 22.8123 29.5832 22.8123Z" fill="white"/>
<path d="M24.0362 19.8115H20.4287C19.9845 19.8115 19.6162 19.4432 19.6162 18.999C19.6162 18.5549 19.9845 18.1865 20.4287 18.1865H24.0362C24.4804 18.1865 24.8487 18.5549 24.8487 18.999C24.8487 19.4432 24.4912 19.8115 24.0362 19.8115Z" fill="white"/>
<path d="M24.9464 16.5615H19.5298C19.0856 16.5615 18.7173 16.1932 18.7173 15.749C18.7173 15.3049 19.0856 14.9365 19.5298 14.9365H24.9464C25.3906 14.9365 25.7589 15.3049 25.7589 15.749C25.7589 16.1932 25.4014 16.5615 24.9464 16.5615Z" fill="white"/>
</svg>
